<?xml version="1.0" encoding="utf-8"?>
<!-- Generator: Adobe Illustrator 22.1.0, SVG Export Plug-In . SVG Version: 6.00 Build 0)  -->
<svg version="1.1" id="Ebene_1" xmlns="http://www.w3.org/2000/svg" xmlns:xlink="http://www.w3.org/1999/xlink" x="0px" y="0px"
	 viewBox="0 0 841.9 595.3" style="enable-background:new 0 0 841.9 595.3;" xml:space="preserve">
<style type="text/css">
	.st0{fill:#1D1D1B;}
	.st1{fill:none;}
	.st2{fill:#575756;}
	.st3{fill:#9CCE2B;}
</style>
<g>
	<path class="st0" d="M337,298.2h3.9v5.5h4.4v-5.5h3.9V313h-3.9v-5.9H341v5.9H337V298.2z"/>
	<path class="st0" d="M356.5,301.5h-3.9v-3.3h11.8v3.3h-3.9V313h-3.9V301.5z"/>
	<path class="st0" d="M367.7,298.2h3.9v11.5h5.6v3.3h-9.5V298.2z"/>
	<path class="st0" d="M388.2,308.5c1,0.8,2.4,1.4,3.5,1.4c1.2,0,1.7-0.4,1.7-1c0-0.7-0.8-0.9-2-1.4l-1.8-0.8c-1.6-0.6-3-2-3-4.1
		c0-2.5,2.3-4.6,5.5-4.6c1.7,0,3.6,0.6,4.9,2l-2,2.5c-1-0.7-1.9-1.1-3-1.1c-1,0-1.6,0.3-1.6,1c0,0.7,0.8,1,2.2,1.5l1.8,0.7
		c1.8,0.7,2.9,2,2.9,4.1c0,2.5-2.1,4.7-5.8,4.7c-1.9,0-4-0.7-5.6-2.1L388.2,308.5z"/>
	<path class="st0" d="M403.2,301.5h-3.9v-3.3H411v3.3h-3.9V313h-3.9V301.5z"/>
	<path class="st0" d="M413.6,308.6c1.3,0,2.3,1,2.3,2.4s-1,2.4-2.3,2.4s-2.3-1-2.3-2.4S412.3,308.6,413.6,308.6z"/>
	<path class="st0" d="M426,298.2h5.7c3.2,0,5.9,1.2,5.9,4.9c0,3.6-2.8,5.2-5.9,5.2h-1.8v4.7H426V298.2z M431.6,305.3
		c1.6,0,2.3-0.8,2.3-2.1s-0.8-1.8-2.3-1.8h-1.6v3.9H431.6z"/>
	<path class="st0" d="M440.6,305.6c0-4.9,2.8-7.6,6.9-7.6s6.9,2.8,6.9,7.6c0,4.9-2.8,7.7-6.9,7.7S440.6,310.4,440.6,305.6z
		 M443.3,295.5c0-1,0.7-1.8,1.8-1.8c1,0,1.8,0.8,1.8,1.8s-0.7,1.8-1.8,1.8C444,297.2,443.3,296.5,443.3,295.5z M450.3,305.6
		c0-2.7-1.1-4.2-2.9-4.2s-2.9,1.5-2.9,4.2c0,2.7,1.1,4.4,2.9,4.4S450.3,308.3,450.3,305.6z M448,295.5c0-1,0.7-1.8,1.8-1.8
		c1,0,1.8,0.8,1.8,1.8s-0.7,1.8-1.8,1.8C448.8,297.2,448,296.5,448,295.5z"/>
	<path class="st0" d="M458.1,298.2h3.9v11.5h5.6v3.3h-9.5V298.2z"/>
	<path class="st0" d="M471.4,301.5h-3.9v-3.3h11.8v3.3h-3.9V313h-3.9V301.5z"/>
	<path class="st0" d="M482.6,298.2h9.6v3.3h-5.7v2.3h4.8v3.3h-4.8v2.6h5.9v3.3h-9.8V298.2z"/>
	<path class="st0" d="M496.4,298.2h4l3.3,6.6l1.4,3.3h0.1c-0.2-1.6-0.5-3.8-0.5-5.7v-4.3h3.7V313h-4l-3.3-6.6l-1.4-3.3h-0.1
		c0.2,1.7,0.5,3.8,0.5,5.7v4.3h-3.7V298.2z"/>
</g>
<g>
	<polygon class="st1" points="377.9,197.7 337,197.7 337,279.4 377.9,279.4 377.9,258.9 418.8,258.9 418.8,218.1 377.9,218.1 	"/>
	<polygon class="st1" points="422.8,279.4 463.7,279.4 463.7,238.5 504.6,238.5 504.6,197.7 422.8,197.7 	"/>
</g>
<g>
	<path class="st2" d="M337,298h3.9v5.5h4.4V298h3.9v14.8h-3.9v-5.9H341v5.9H337V298z"/>
	<path class="st2" d="M356.6,301.3h-3.9V298h11.8v3.3h-3.9v11.5h-3.9V301.3z"/>
	<path class="st2" d="M367.7,298h3.9v11.5h5.6v3.3h-9.5V298z"/>
	<path class="st2" d="M388.2,308.3c1.1,0.8,2.4,1.4,3.5,1.4c1.2,0,1.7-0.4,1.7-1c0-0.7-0.8-0.9-2-1.4l-1.8-0.8c-1.6-0.6-3-2-3-4.1
		c0-2.5,2.3-4.6,5.5-4.6c1.7,0,3.6,0.6,4.9,2l-2,2.5c-1-0.7-1.9-1.1-3-1.1c-1,0-1.6,0.3-1.6,1c0,0.7,0.8,1,2.2,1.5l1.8,0.7
		c1.8,0.7,2.9,2,2.9,4.1c0,2.5-2.1,4.7-5.8,4.7c-1.9,0-4-0.7-5.6-2.1L388.2,308.3z"/>
	<path class="st2" d="M403.2,301.3h-3.9V298h11.8v3.3h-3.9v11.5h-3.9V301.3z"/>
	<path class="st2" d="M413.7,308.3c1.3,0,2.3,1.1,2.3,2.4s-1,2.4-2.3,2.4s-2.3-1-2.3-2.4S412.4,308.3,413.7,308.3z"/>
	<path class="st2" d="M426,298h5.7c3.2,0,5.9,1.2,5.9,4.9c0,3.6-2.8,5.2-5.9,5.2H430v4.7H426V298z M431.6,305c1.6,0,2.3-0.8,2.3-2.1
		s-0.8-1.8-2.3-1.8H430v3.9H431.6z"/>
	<path class="st2" d="M440.6,305.3c0-4.9,2.8-7.6,6.9-7.6c4.1,0,6.9,2.8,6.9,7.6c0,4.9-2.8,7.8-6.9,7.8
		C443.4,313.1,440.6,310.2,440.6,305.3z M443.4,295.2c0-1,0.7-1.8,1.8-1.8c1,0,1.8,0.8,1.8,1.8s-0.7,1.8-1.8,1.8
		C444.1,297,443.4,296.2,443.4,295.2z M450.4,305.3c0-2.7-1.1-4.2-2.9-4.2c-1.8,0-2.9,1.5-2.9,4.2c0,2.7,1.1,4.4,2.9,4.4
		C449.3,309.7,450.4,308,450.4,305.3z M448.1,295.2c0-1,0.7-1.8,1.8-1.8c1,0,1.8,0.8,1.8,1.8s-0.7,1.8-1.8,1.8
		C448.8,297,448.1,296.2,448.1,295.2z"/>
	<path class="st2" d="M458.2,298h3.9v11.5h5.6v3.3h-9.5V298z"/>
	<path class="st2" d="M471.5,301.3h-3.9V298h11.8v3.3h-3.9v11.5h-3.9V301.3z"/>
	<path class="st2" d="M482.7,298h9.6v3.3h-5.7v2.3h4.8v3.3h-4.8v2.6h5.9v3.3h-9.8V298z"/>
	<path class="st2" d="M496.5,298h4l3.3,6.6l1.4,3.3h0.1c-0.2-1.6-0.5-3.8-0.5-5.7V298h3.7v14.8h-4l-3.3-6.6l-1.4-3.3h-0.1
		c0.2,1.7,0.5,3.8,0.5,5.7v4.3h-3.7V298z"/>
</g>
<polygon class="st3" points="377.8,218.2 377.8,197.7 336.8,197.7 336.8,279.6 377.8,279.6 377.8,259.1 418.7,259.1 418.7,218.2 "/>
<polygon class="st2" points="463.7,238.6 504.7,238.6 504.7,197.7 422.8,197.7 422.8,279.6 463.7,279.6 "/>
<polygon class="st3" points="549.7,238.6 549.7,197.7 508.8,197.7 508.8,279.6 590.6,279.6 590.6,238.6 "/>
</svg>
